<?xml version="1.0" encoding="UTF-8"?>
<svg id="Camada_2" data-name="Camada 2" xmlns="http://www.w3.org/2000/svg" viewBox="0 0 620.69 76.75">
  <defs>
    <style>
      .cls-1 {
        fill: #ea590f;
      }

      .cls-1, .cls-2 {
        stroke-width: 0px;
      }

      .cls-2 {
        fill: #0a0b0b;
      }
    </style>
  </defs>
  <g id="Camada_1-2" data-name="Camada 1">
    <path class="cls-2" d="M70.56.03h-14.46v53.8L14.46.07V.03h-6.85C3.41.03,0,3.43,0,7.63v69.01h14.46V22.96l41.63,53.74.08-.05h14.39V.03Z"/>
    <path class="cls-2" d="M188.43.03c-23.14,0-41.9,17.16-41.9,38.34s18.76,38.34,41.9,38.34,41.9-17.16,41.9-38.34S211.57.03,188.43.03ZM188.43,64.79c-15.95,0-28.89-11.83-28.89-26.43s12.93-26.43,28.89-26.43,28.89,11.83,28.89,26.43-12.93,26.43-28.89,26.43Z"/>
    <rect class="cls-2" x="81.44" y=".03" width="63.77" height="13.23" rx="6.61" ry="6.61"/>
    <g>
      <path class="cls-2" d="M95.9,42.47h29.85c3.65,0,6.61-2.96,6.61-6.61h0c0-3.65-2.96-6.62-6.61-6.62h-29.85s-2.21,0-2.21,0h-5.64c-3.65,0-6.61,2.96-6.61,6.61h0c0,3.65,2.96,6.62,6.61,6.62h7.85Z"/>
      <path class="cls-2" d="M121.81,63.47h-33.76c-3.65,0-6.61,2.96-6.61,6.61v6.62h57.16c3.65,0,6.61-2.96,6.61-6.61h0c0-3.65-2.96-6.62-6.61-6.62h-16.79Z"/>
    </g>
    <path class="cls-1" d="M426.19,0c-23.14,0-41.9,17.17-41.9,38.36s18.76,38.36,41.9,38.36,41.9-17.17,41.9-38.36S449.33,0,426.19,0ZM426.19,64.79c-15.95,0-28.89-11.83-28.89-26.44s12.93-26.44,28.89-26.44,28.89,11.83,28.89,26.44-12.93,26.44-28.89,26.44Z"/>
    <polygon class="cls-1" points="546.43 .03 531.97 .03 531.97 53.84 490.33 .08 490.33 .03 475.87 .03 475.87 76.66 490.33 76.66 490.33 22.96 531.96 76.71 532.04 76.66 546.43 76.66 546.43 13.26 546.43 .03"/>
    <path class="cls-1" d="M554.22,6.75v6.48h26v63.45h14.47V13.23h26V0h-59.72c-3.73,0-6.75,3.02-6.75,6.75Z"/>
    <path class="cls-1" d="M238.26.02v76.68h14.46v-34.23h35.45v-13.23h-35.45v-15.99h41.44c3.65,0,6.61-2.96,6.61-6.61h0c0-3.65-2.96-6.61-6.61-6.61h-55.9Z"/>
    <path class="cls-1" d="M323.16,36.47c0-3.99-3.24-7.23-7.23-7.23s-7.23,3.24-7.23,7.23v40.23h14.46v-40.23Z"/>
    <path class="cls-1" d="M354.61,51.19c5.45-2.27,9.98-6.04,13.02-10.72,2.59-3.99,4.11-8.63,4.11-13.61,0-14.39-12.43-26.23-28-26.84h-27.43c-4.2,0-7.61,3.41-7.61,7.61v5.62h35.04c7.66.58,13.68,6.45,13.68,13.61,0,6.66-5.21,12.19-12.1,13.4-.52.09-1.05.16-1.58.21h-11.47c-1.71,0-2.63,2-1.53,3.3l8.34,9.8,19.72,23.18h17.56l-19.72-23.18-2.03-2.38Z"/>
  </g>
</svg>