<?xml version="1.0" encoding="utf-8"?>
<!-- Generator: Adobe Illustrator 28.2.0, SVG Export Plug-In . SVG Version: 6.00 Build 0)  -->
<svg version="1.1" id="Camada_2_00000021797973124843642120000006133423163905429419_"
	 xmlns="http://www.w3.org/2000/svg" xmlns:xlink="http://www.w3.org/1999/xlink" x="0px" y="0px" viewBox="0 0 620.7 76.8"
	 style="enable-background:new 0 0 620.7 76.8;" xml:space="preserve">
<style type="text/css">
	.st0{fill:#FFFFFF;}
	.st1{fill:#EA590F;}
</style>
<path class="st0" d="M70.6,0H56.1v53.8L14.5,0.1v0H7.6C3.4,0,0,3.4,0,7.6v69h14.5V23l41.6,53.7l0.1-0.1h14.4
	C70.6,76.6,70.6,0,70.6,0z"/>
<path class="st0" d="M188.4,0c-23.1,0-41.9,17.2-41.9,38.3s18.8,38.3,41.9,38.3s41.9-17.2,41.9-38.3S211.6,0,188.4,0z M188.4,64.8
	c-15.9,0-28.9-11.8-28.9-26.4s12.9-26.4,28.9-26.4s28.9,11.8,28.9,26.4S204.4,64.8,188.4,64.8z"/>
<path class="st0" d="M88.1,0h50.6c3.7,0,6.6,3,6.6,6.6v0c0,3.7-3,6.6-6.6,6.6H88.1c-3.7,0-6.6-3-6.6-6.6v0C81.4,3,84.4,0,88.1,0z"/>
<g>
	<path class="st0" d="M95.9,42.5h29.8c3.6,0,6.6-3,6.6-6.6l0,0c0-3.7-3-6.6-6.6-6.6H95.9h-2.2h-5.6c-3.7,0-6.6,3-6.6,6.6l0,0
		c0,3.7,3,6.6,6.6,6.6H95.9z"/>
	<path class="st0" d="M121.8,63.5H88.1c-3.7,0-6.6,3-6.6,6.6v6.6h57.2c3.6,0,6.6-3,6.6-6.6l0,0c0-3.7-3-6.6-6.6-6.6
		C138.6,63.5,121.8,63.5,121.8,63.5z"/>
</g>
<path class="st1" d="M426.2,0c-23.1,0-41.9,17.2-41.9,38.4s18.8,38.4,41.9,38.4s41.9-17.2,41.9-38.4S449.3,0,426.2,0z M426.2,64.8
	c-16,0-28.9-11.8-28.9-26.4s12.9-26.4,28.9-26.4s28.9,11.8,28.9,26.4S442.2,64.8,426.2,64.8z"/>
<polygon class="st1" points="546.4,0 532,0 532,53.8 490.3,0.1 490.3,0 475.9,0 475.9,76.7 490.3,76.7 490.3,23 532,76.7 532,76.7 
	546.4,76.7 546.4,13.3 "/>
<path class="st1" d="M554.2,6.8v6.5h26v63.5h14.5V13.2h26V0H561C557.2,0,554.2,3,554.2,6.8z"/>
<path class="st1" d="M238.3,0v76.7h14.5V42.5h35.5V29.2h-35.4v-16h41.4c3.6,0,6.6-3,6.6-6.6l0,0c0-3.7-3-6.6-6.6-6.6L238.3,0
	L238.3,0z"/>
<path class="st1" d="M323.2,36.5c0-4-3.2-7.2-7.2-7.2s-7.2,3.2-7.2,7.2v40.2h14.5L323.2,36.5L323.2,36.5z"/>
<path class="st1" d="M354.6,51.2c5.5-2.3,10-6,13-10.7c2.6-4,4.1-8.6,4.1-13.6c0-14.4-12.4-26.2-28-26.8h-27.4
	c-4.2,0-7.6,3.4-7.6,7.6v5.6h35c7.7,0.6,13.7,6.5,13.7,13.6c0,6.7-5.2,12.2-12.1,13.4c-0.5,0.1-1,0.2-1.6,0.2h-11.5
	c-1.7,0-2.6,2-1.5,3.3l8.3,9.8l19.7,23.2h17.6l-19.7-23.2C356.6,53.6,354.6,51.2,354.6,51.2z"/>
</svg>
