<?xml version="1.0" encoding="utf-8"?>
<!-- Generator: Adobe Illustrator 28.2.0, SVG Export Plug-In . SVG Version: 6.00 Build 0)  -->
<svg version="1.1" id="Camada_1" xmlns="http://www.w3.org/2000/svg" xmlns:xlink="http://www.w3.org/1999/xlink" x="0px" y="0px"
	 viewBox="0 0 24 24" style="enable-background:new 0 0 24 24;" xml:space="preserve">
<style type="text/css">
	.st0{fill:#FFFFFF;}
</style>
<g>
	<path class="st0" d="M7.7,0.1h13.6l0,0v3.7l0,0.2l-0.1,0.2l-0.5,0.9l-0.1,0.3l-0.3,0.6l-0.1,0.3l-0.4,0.7l-0.1,0.3L19.4,8l-0.1,0.2
		l0,0.1v15.2l0,0.2l0,0.1v0l-0.1,0h-7.4l-0.1-0.1L3,15.1l0,0V4.8l0,0h3l1.4,0l0.1,0l0.1-0.1l0-0.1l0-0.1l0-0.1V2.1L7.7,0.1z
		 M7.2,6.6l-0.1,0L7,6.7L6.9,6.8l0,0.1v6.7l0,0.1L7,13.8l0.1,0.1l0.1,0l3.1,0l0.1,0.4l0.1,0.2l0.1,0.3l0.2,0.4l0.1,0.2l0.1,0.2
		l0.1,0.2l0.1,0.1l0.2,0.2l0.3,0.2l0.2,0.1l0.2,0.1l0.2,0.1l0.3,0.1L13,17l0.3,0.1l0.3,0l0.2,0H14l0.4,0l0.4-0.1l0.2-0.1l0.3-0.1
		l0.3-0.2l0.2-0.1l0.2-0.1l0.1-0.1l0.2-0.2l0.2-0.2l0.1-0.1l0.1-0.1l0.1-0.2l0.2-0.3l0.1-0.3l0.1-0.3l0.1-0.3l0-0.2l0-0.3l0-0.2
		v-0.1l0-0.4l-0.1-0.4l-0.1-0.3l-0.1-0.3l-0.1-0.3l-0.2-0.3l-0.2-0.2l-0.2-0.2L16.4,11l-0.2-0.2l-0.1-0.1l-0.2-0.2l-0.2-0.1
		l-0.2-0.1l-0.3-0.1l-0.3-0.1L14.6,10l-0.3,0l-0.1,0l0-3.1l0-0.1l-0.1-0.1L14,6.6l-0.1,0H7.2z M12.7,19.6l-1.6,0l-0.1,0l-0.1,0.1
		l0,0.1l0,0v0.1l0,0.1l0.1,0.1l0.1,0l0.1,0l0.1,0h6.6l0.1,0l0.1,0l0.1-0.1l0-0.1v-0.2l0-0.1L18,19.7l-0.1,0l-0.1,0l-2.5,0H12.7z
		 M11,21.2l-0.1,0l-0.1,0.1l0,0.1l0,0v0.1l0,0.1l0.1,0.1l0.1,0.1l0.1,0h3.7l0.1,0l0.1,0l0.1-0.1l0-0.1l0-0.1l0-0.1L15,21.3l-0.1-0.1
		l-0.1,0H11z"/>
	<path class="st0" d="M0.6,13.7L0.6,13.7l0.1,0.1L0.9,14L1,14.1L1,14.2l0.2,0.2l0.1,0.1l0.1,0.1l0.1,0.1l0.1,0.1l0.1,0.1l0.1,0.1
		l0.1,0.1L1.9,15L2,15L2,15.1l0.1,0.1l0.1,0.1v0l0,0l1.2,1.2v0l0,0l0.1,0.1l0.1,0.1l0,0v0l0,0l0.1,0.1L3.9,17L4,17.1L4,17.1l0.1,0.1
		l0.1,0.1l0.2,0.2l0.1,0.1l0.1,0.1l0.1,0.1l0.1,0.1l0.1,0.1l0.1,0.1L4.9,18L5,18.1L5,18.1l0.1,0.1l0.1,0.1l0.1,0.1l0.1,0.1l0.1,0.1
		l0.1,0.1l0.3,0.3L5.9,19l0.1,0.1l4.8,4.8v0H9.6l0,0l0-0.3l0-0.1l-0.1-0.1l-0.1-0.1l-0.1,0l-0.1,0l-0.1,0l-0.1,0l-0.1,0.1l0,0.1
		l0,0.3l-0.6,0H8l0,0l0-0.3l0-0.1l-0.1-0.1l-0.1-0.1l-0.1,0H7.5l-0.1,0l-0.1,0.1l-0.1,0.1l0,0.1l0,0.3l-0.9,0l0,0l0-0.3l0-0.1
		l-0.1-0.1l-0.1-0.1l-0.1,0H5.9l-0.1,0l0,0h0v0h0l0,0l0,0.1l0,0.1l0,0.3l-0.9,0l0,0l0-0.3l0-0.1l-0.1-0.1l-0.1-0.1l-0.1,0H4.2
		l-0.1,0L4,23.4l0,0.1l0,0.1l0,0.3l-0.9,0l0,0l0-0.3l0-0.1l-0.1-0.1l-0.1-0.1l-0.1,0H2.6l-0.1,0l-0.1,0.1l0,0.1l0,0.1v0.2l0,0
		l-1.6,0l-0.1,0v-1.7l0.3,0l0.1,0l0.1-0.1l0.1-0.1l0,0v-0.1l0-0.1l-0.1-0.1l-0.1,0l-0.1,0H0.6l0,0v-0.9l0,0l0.3,0l0.1,0l0.1-0.1
		l0.1-0.1l0-0.1v-0.1l0-0.1l-0.1-0.1L1,19.8l-0.1,0H0.6l0,0v-0.9l0,0l0.3,0l0.1,0l0.1-0.1l0.1-0.1l0-0.1v-0.1l0-0.1L1,18.2l-0.1,0
		l0,0l-0.3,0l0,0v-0.9l0,0h0.2l0.1,0l0.1-0.1L1.1,17l0-0.1v-0.1l0-0.1L1,16.6l-0.1,0l0,0l-0.3,0l0,0v-0.9l0.3,0l0.1,0l0.1-0.1
		l0.1-0.1l0-0.1v-0.1l0-0.1L1,14.9l-0.1,0l0,0l-0.3,0l0,0V13.7z M2.3,17.5l-0.1,0l-0.1,0.1L2,17.7l0,0.1l0,0.1v4.3l0,0.1l0.1,0.1
		l0.1,0.1l0.1,0h4.4l0.1,0l0.1-0.1l0-0.1l0-0.1l0-0.1l-0.1-0.1l-0.1-0.1l-4.2-4.2l-0.1-0.1L2.3,17.5z"/>
	<path class="st0" d="M7.7,7.3h5.8l0,0v2.6l-0.1,0L13.1,10l-0.3,0.1l-0.2,0.1l-0.2,0.1L12,10.5l-0.2,0.2l-0.2,0.1l-0.1,0.1l-0.2,0.2
		l-0.1,0.1L11,11.4l-0.1,0.2l-0.1,0.2L10.7,12l-0.1,0.3l-0.1,0.4l-0.1,0.2l0,0.3l0,0H7.7l0-0.9L7.7,7.3L7.7,7.3z"/>
	<path class="st0" d="M13.8,10.7h0.1l0.3,0l0.3,0l0.3,0.1l0.3,0.1l0.2,0.1l0.2,0.1l0.2,0.1l0.2,0.1l0.2,0.2l0.1,0.1l0.1,0.2l0.1,0.2
		l0.1,0.2l0.1,0.2l0.1,0.3l0,0.2l0,0.3v0.4l0,0.2l0,0.2l-0.1,0.3l-0.1,0.3l-0.1,0.2l-0.1,0.2l-0.2,0.2l-0.2,0.2l-0.1,0.1l-0.2,0.1
		l-0.1,0.1L15.3,16L15,16.1l-0.3,0.1l-0.3,0.1l-0.2,0l-0.1,0h-0.3l-0.3,0l-0.3-0.1l-0.2-0.1l-0.1-0.1L12.4,16l-0.2-0.1L12,15.7
		l-0.2-0.2l-0.1-0.1l-0.1-0.1L11.4,15l-0.1-0.2l-0.1-0.2l-0.1-0.3L11,14l0-0.3v-0.3l0-0.3l0.1-0.3l0-0.2l0.1-0.3l0.1-0.3l0.1-0.2
		l0.2-0.2l0.1-0.1l0.1-0.1l0.1-0.1l0.1-0.1l0.2-0.2l0.2-0.1l0.3-0.1l0.3-0.1l0.3-0.1l0.2,0L13.8,10.7z"/>
	<path class="st0" d="M20,8.7h0.8l0.5,0l0,0l0,12.3l0,0H20l0,0L20,8.7L20,8.7z"/>
	<path class="st0" d="M22.1,8.7h0.6l0.7,0l0,0v12.4l0,0h-1.3l0,0L22.1,8.7L22.1,8.7z"/>
	<path class="st0" d="M20,21.8h3.4l0,0v1.8l0,0.1l-0.1,0.1l-0.1,0.1l-0.1,0l-0.1,0h-2.6l-0.1,0l-0.1-0.1L20,23.7l0-0.1V21.8z"/>
	<path class="st0" d="M6.9,0.7L6.9,0.7l0,3.4l0,0H3.5l0,0l0.2-0.2l0.1-0.1L4,3.6l0,0h0l0,0h0l0,0l0.1-0.1l0.1-0.1l0.1-0.1l0.1-0.1
		l0.1-0.1l0.1-0.1L4.6,3l0.1-0.1l0.1-0.1l0.1-0.1l0.1-0.1L5,2.6l0.1-0.1l0.1-0.1l0.1-0.1l0.1-0.1l0.1-0.1l0.1-0.1l0.1-0.1L5.6,2
		L5.6,2l0.1-0.1l0.1-0.1l0.1-0.1l0.1-0.1L6,1.6l0.1-0.1l0.1-0.1l0.1-0.1l0.1-0.1l0.1-0.1l0.1-0.1l0.1-0.1l0.3-0.3L6.9,0.7L6.9,0.7z"
		/>
	<path class="st0" d="M2.7,18.8L2.7,18.8l0.1,0.1L2.9,19l0.6,0.6v0l0,0v0l0,0v0l0,0v0l0,0l1.9,1.9v0h-3l0,0l0-2.8L2.7,18.8L2.7,18.8
		z"/>
	<path class="st0" d="M21.7,5L21.7,5l0.1,0.3l0.3,0.6l0.1,0.3l0.3,0.6l0.1,0.3l0.2,0.4L23,7.6l0.2,0.3l0,0h-2.9l0-0.1l0.3-0.6
		L20.7,7l0.2-0.5l0.1-0.3l0.3-0.6l0.1-0.3L21.7,5L21.7,5z"/>
</g>
</svg>
