<?xml version="1.0" encoding="utf-8"?>
<!-- Generator: Adobe Illustrator 28.2.0, SVG Export Plug-In . SVG Version: 6.00 Build 0)  -->
<svg version="1.1" id="Camada_1" xmlns="http://www.w3.org/2000/svg" xmlns:xlink="http://www.w3.org/1999/xlink" x="0px" y="0px"
	 viewBox="0 0 24 24" style="enable-background:new 0 0 24 24;" xml:space="preserve">
<style type="text/css">
	.st0{fill:#FFFFFF;}
</style>
<path class="st0" d="M23.8,8.1H0.2v14.5c0,0.8,0.7,1.3,1.3,1.3h21c0.7,0,1.3-0.5,1.3-1.3V8.1z M0.2,6.7h23.7V1.5
	c0-0.7-0.5-1.3-1.3-1.3h-21c-0.8,0-1.3,0.7-1.3,1.3V6.7z M20.1,2.4c0.5,0,1.1,0.4,1.1,1.1c0,0.5-0.5,1.1-1.1,1.1S19.1,4,19.1,3.5
	C19.1,2.8,19.6,2.4,20.1,2.4z M17.9,3.5c0,0.5-0.5,1.1-1.1,1.1c-2.2,0-10.9,0-13.1,0C3.3,4.4,2.8,4,2.8,3.5s0.5-1.1,1.1-1.1H17
	C17.4,2.4,17.9,2.9,17.9,3.5z"/>
</svg>
