<?xml version="1.0" encoding="utf-8"?>
<!-- Generator: Adobe Illustrator 28.2.0, SVG Export Plug-In . SVG Version: 6.00 Build 0)  -->
<svg version="1.1" id="Camada_1" xmlns="http://www.w3.org/2000/svg" xmlns:xlink="http://www.w3.org/1999/xlink" x="0px" y="0px"
	 viewBox="0 0 24 24" style="enable-background:new 0 0 24 24;" xml:space="preserve">
<style type="text/css">
	.st0{fill:#FFFFFF;}
</style>
<g>
	<path class="st0" d="M4.5,0.3h15l0.2,0.1l0.1,0.1l0.1,0.1L20,0.7l0,0.2V1l0,0.2L20,1.3l-0.1,0.1l-0.1,0.1l-0.1,0.1l-0.1,0l-0.1,0
		h-0.8v17.7l0,0H5.4l0,0V1.7H4.6l-0.2,0L4.3,1.6L4.2,1.5L4.1,1.4L4,1.2l0-0.1V0.9l0-0.2l0.1-0.1l0.1-0.1l0.1-0.1l0.1-0.1L4.5,0.3z
		 M9.1,3.2l-0.2,0l-0.1,0L8.6,3.4L8.5,3.5L8.4,3.6l0,0.2V4l0,0.2l0.1,0.1l0.1,0.1l0.1,0.1l0.1,0l0.2,0h5.3l0.6,0l0.2,0l0.1-0.1
		l0.1-0.1v0l0,0l0.1-0.1l0-0.1l0-0.2V3.8l0-0.1l-0.1-0.1l-0.1-0.1l-0.1-0.1l-0.2-0.1l-0.1,0l-0.2,0H9.1z M9.1,6.2l-0.2,0l-0.1,0
		L8.7,6.3L8.6,6.4L8.5,6.5L8.4,6.6l0,0.1l0,0.1v4.4l0,0.2l0.1,0.1l0.1,0.1l0.1,0.1l0.1,0.1l0.1,0l0.1,0h6l0.2,0l0.1-0.1l0.1-0.1
		l0.1-0.1l0.1-0.1l0-0.1V6.8l0-0.1l-0.1-0.1l-0.1-0.1l-0.1-0.1l-0.1-0.1l-0.1,0l-0.3,0H9.1z M9,13.5l-0.2,0l-0.1,0l-0.1,0.1l-0.1,0
		l-0.1,0.1L8.4,14l0,0.1v0.2l0.1,0.2l0.1,0.1l0.1,0.1l0.1,0.1l0.1,0.1l0.2,0l1.2,0h3.6l1.2,0l0.2,0l0.2-0.1l0.1-0.1l0.1-0.1l0.1-0.1
		l0-0.1v-0.2l0-0.2l-0.1-0.2l-0.1-0.1l-0.1-0.1l-0.2-0.1l-0.2,0H9z M10.5,16.5l-0.2,0l-0.1,0.1l-0.1,0.1L10,16.8l-0.1,0.1l0,0.1
		l0,0.2l0,0.2l0.1,0.2l0.1,0.1l0.1,0.1l0.1,0l0.2,0h3.1l0.2,0l0.1-0.1l0.1-0.1l0.1-0.1l0-0.1l0-0.1V17l-0.1-0.2L14,16.7l-0.1-0.1
		l-0.1-0.1l-0.1-0.1l-0.2,0H10.5z"/>
	<path class="st0" d="M4.6,20.8h14.7l0.2,0l0.1,0l0.1,0.1l0.1,0.1l0.1,0.1l0.1,0.1l0,0.1v1.7l0,0.1l-0.1,0.1l-0.1,0.1l-0.1,0.1
		l-0.1,0.1l-0.1,0h-15l-0.2-0.1l-0.1-0.1l-0.1-0.1L4,23.2l0-0.1l0-0.4v-1.3l0-0.2L4,21.1L4.1,21l0.1-0.1h0v0l0.1-0.1l0.1-0.1
		L4.6,20.8z"/>
	<path class="st0" d="M9.8,7.5l4.5,0l0,0.1v2.9l0,0H9.8l0,0L9.8,7.5L9.8,7.5z"/>
</g>
</svg>
