<?xml version="1.0" encoding="utf-8"?>
<!-- Generator: Adobe Illustrator 28.2.0, SVG Export Plug-In . SVG Version: 6.00 Build 0)  -->
<svg version="1.1" id="Camada_1" xmlns="http://www.w3.org/2000/svg" xmlns:xlink="http://www.w3.org/1999/xlink" x="0px" y="0px"
	 viewBox="0 0 24 24" style="enable-background:new 0 0 24 24;" xml:space="preserve">
<style type="text/css">
	.st0{fill-rule:evenodd;clip-rule:evenodd;fill:#FFFFFF;}
</style>
<path class="st0" d="M1,12.2c2.3,4,4.6,7.9,6.9,11.8H2.5C1.7,24,1,23.3,1,22.5V12.2z M3.8,13c3.3,2,12.9,7.7,13.1,7.8l-5.2,3
	c-0.2,0.1-0.5,0.2-0.8,0.2c-0.5,0-1-0.3-1.3-0.8L3.8,13z M5.8,0.2C5.5,0.1,5.3,0,5,0C4.5,0,4,0.3,3.7,0.8L0.2,6.8C0.1,7,0,7.3,0,7.6
	c0,0.5,0.3,1,0.8,1.3c2.9,1.7,14.6,8.7,17.5,10.4c0.7,0.4,1.6,0.2,2-0.5l3.5-6.1c0.1-0.2,0.2-0.5,0.2-0.7c0-0.5-0.3-1-0.7-1.3
	L5.8,0.2 M6,4.1c1.1,0,2,0.9,2,2s-0.9,2-2,2s-2-0.9-2-2S4.9,4.1,6,4.1"/>
</svg>
